<?xml version="1.0" encoding="UTF-8" standalone="no"?>
<!-- The icon can be used freely in both personal and commercial projects with no attribution required, but always appreciated. 
You may NOT sub-license, resell, rent, redistribute or otherwise transfer the icon without express written permission from iconmonstr.com -->

<svg
   xmlns:dc="http://purl.org/dc/elements/1.1/"
   xmlns:cc="http://creativecommons.org/ns#"
   xmlns:rdf="http://www.w3.org/1999/02/22-rdf-syntax-ns#"
   xmlns:svg="http://www.w3.org/2000/svg"
   xmlns="http://www.w3.org/2000/svg"
   xmlns:sodipodi="http://sodipodi.sourceforge.net/DTD/sodipodi-0.dtd"
   xmlns:inkscape="http://www.inkscape.org/namespaces/inkscape"
   version="1.1"
   x="0px"
   y="0px"
   width="512px"
   height="512px"
   viewBox="0 0 512 512"
   enable-background="new 0 0 512 512"
   xml:space="preserve"
   id="svg2"
   inkscape:version="0.48.2 r9819"
   sodipodi:docname="eventsLog.svg"><metadata
   id="metadata9"><rdf:RDF><cc:Work
       rdf:about=""><dc:format>image/svg+xml</dc:format><dc:type
         rdf:resource="http://purl.org/dc/dcmitype/StillImage" /><dc:title></dc:title></cc:Work></rdf:RDF></metadata><defs
   id="defs7" /><sodipodi:namedview
   pagecolor="#ffffff"
   bordercolor="#666666"
   borderopacity="1"
   objecttolerance="10"
   gridtolerance="10"
   guidetolerance="10"
   inkscape:pageopacity="0"
   inkscape:pageshadow="2"
   inkscape:window-width="1304"
   inkscape:window-height="745"
   id="namedview5"
   showgrid="false"
   inkscape:zoom="0.4609375"
   inkscape:cx="19.977009"
   inkscape:cy="22.214904"
   inkscape:window-x="344"
   inkscape:window-y="1072"
   inkscape:window-maximized="1"
   inkscape:current-layer="svg2" />



<path
   inkscape:connector-curvature="0"
   style="fill:#ffffff;fill-opacity:1"
   d="m 257.22802,15.547667 c -130.43638,0 -236.171877,95.360413 -236.171877,212.870653 0,117.51024 105.735497,212.739 236.171877,212.739 30.03031,0 58.75139,-5.14159 85.17458,-14.34935 l 53.44804,33.56958 57.00246,35.9392 -30.54174,-103.99988 -2.76454,-9.47847 c 45.48937,-38.78296 73.85307,-93.5431 73.85307,-154.42008 0,-117.51024 -105.73549,-212.870653 -236.17187,-212.870653 z m 2.10633,42.258179 c 8.06381,3.37e-4 14.75587,2.970004 20.27339,8.951889 5.51727,5.982514 8.29353,14.750898 8.29366,26.329087 -1.3e-4,3.666824 -0.28519,8.911998 -0.92152,15.665808 l -22.9063,188.64789 -9.87341,0 -22.64299,-188.64789 c -0.8489,-8.29762 -1.18485,-14.509276 -1.18482,-18.56201 -3e-5,-9.648411 2.80175,-17.450371 8.42531,-23.432885 5.62343,-5.981885 12.47268,-8.951552 20.53668,-8.951889 z m -0.39473,278.430084 c 7.85158,4e-5 14.49258,2.48647 20.0101,7.50379 5.51727,5.01734 8.29354,10.95672 8.29366,17.90377 -1.2e-4,7.14007 -2.77639,13.31653 -8.29366,18.43036 -5.51752,5.11382 -12.15852,7.63543 -20.0101,7.63543 -7.85176,0 -14.51831,-2.52161 -20.14174,-7.63543 -5.62355,-5.11383 -8.42534,-11.29029 -8.4253,-18.43036 -4e-5,-6.94705 2.80175,-12.88643 8.4253,-17.90377 5.62343,-5.01732 12.28998,-7.50375 20.14174,-7.50379 z"
   id="path3776" /></svg>