<?xml version="1.0" encoding="UTF-8" standalone="no"?>
<!-- The icon can be used freely in both personal and commercial projects with no attribution required, but always appreciated. 
You may NOT sub-license, resell, rent, redistribute or otherwise transfer the icon without express written permission from iconmonstr.com -->

<svg
   xmlns:dc="http://purl.org/dc/elements/1.1/"
   xmlns:cc="http://creativecommons.org/ns#"
   xmlns:rdf="http://www.w3.org/1999/02/22-rdf-syntax-ns#"
   xmlns:svg="http://www.w3.org/2000/svg"
   xmlns="http://www.w3.org/2000/svg"
   xmlns:sodipodi="http://sodipodi.sourceforge.net/DTD/sodipodi-0.dtd"
   xmlns:inkscape="http://www.inkscape.org/namespaces/inkscape"
   version="1.1"
   x="0px"
   y="0px"
   width="512px"
   height="512px"
   viewBox="0 0 512 512"
   enable-background="new 0 0 512 512"
   xml:space="preserve"
   id="svg2"
   inkscape:version="0.48.4 r9939"
   sodipodi:docname="iconmonstr-twitter-icon.svg"><metadata
   id="metadata9"><rdf:RDF><cc:Work
       rdf:about=""><dc:format>image/svg+xml</dc:format><dc:type
         rdf:resource="http://purl.org/dc/dcmitype/StillImage" /><dc:title></dc:title></cc:Work></rdf:RDF></metadata><defs
   id="defs7" /><sodipodi:namedview
   pagecolor="#ffffff"
   bordercolor="#666666"
   borderopacity="1"
   objecttolerance="10"
   gridtolerance="10"
   guidetolerance="10"
   inkscape:pageopacity="0"
   inkscape:pageshadow="2"
   inkscape:window-width="1304"
   inkscape:window-height="745"
   id="namedview5"
   showgrid="false"
   inkscape:zoom="0.4609375"
   inkscape:cx="256"
   inkscape:cy="256"
   inkscape:window-x="54"
   inkscape:window-y="-8"
   inkscape:window-maximized="1"
   inkscape:current-layer="svg2" />

<path
   id="twitter-icon"
   d="M462,128.223c-15.158,6.724-31.449,11.269-48.547,13.31c17.449-10.461,30.854-27.025,37.164-46.764   c-16.333,9.687-34.422,16.721-53.676,20.511c-15.418-16.428-37.386-26.691-61.698-26.691c-54.56,0-94.668,50.916-82.337,103.787   c-70.25-3.524-132.534-37.177-174.223-88.314c-22.142,37.983-11.485,87.691,26.158,112.85c-13.854-0.438-26.891-4.241-38.285-10.574   c-0.917,39.162,27.146,75.781,67.795,83.949c-11.896,3.237-24.926,3.978-38.17,1.447c10.754,33.58,41.972,58.018,78.96,58.699   C139.604,378.282,94.846,390.721,50,385.436c37.406,23.982,81.837,37.977,129.571,37.977c156.932,0,245.595-132.551,240.251-251.435   C436.339,160.061,450.668,145.174,462,128.223z"
   style="fill:#32b4e4;fill-opacity:1" />

</svg>