<?xml version="1.0" encoding="UTF-8" standalone="no"?>
<svg
   xmlns:dc="http://purl.org/dc/elements/1.1/"
   xmlns:cc="http://creativecommons.org/ns#"
   xmlns:rdf="http://www.w3.org/1999/02/22-rdf-syntax-ns#"
   xmlns:svg="http://www.w3.org/2000/svg"
   xmlns="http://www.w3.org/2000/svg"
   xmlns:sodipodi="http://sodipodi.sourceforge.net/DTD/sodipodi-0.dtd"
   xmlns:inkscape="http://www.inkscape.org/namespaces/inkscape"
   version="1.1"
   x="0px"
   y="0px"
   width="512px"
   height="512px"
   viewBox="0 0 512 512"
   enable-background="new 0 0 512 512"
   xml:space="preserve"
   id="svg2994"
   inkscape:version="0.48.4 r9939"
   sodipodi:docname="italic.svg"><metadata
   id="metadata3001"><rdf:RDF><cc:Work
       rdf:about=""><dc:format>image/svg+xml</dc:format><dc:type
         rdf:resource="http://purl.org/dc/dcmitype/StillImage" /><dc:title></dc:title></cc:Work></rdf:RDF></metadata><defs
   id="defs2999" /><sodipodi:namedview
   pagecolor="#ffffff"
   bordercolor="#666666"
   borderopacity="1"
   objecttolerance="10"
   gridtolerance="10"
   guidetolerance="10"
   inkscape:pageopacity="0"
   inkscape:pageshadow="2"
   inkscape:window-width="1304"
   inkscape:window-height="745"
   id="namedview2997"
   showgrid="false"
   inkscape:zoom="0.92187499"
   inkscape:cx="401.75736"
   inkscape:cy="246.19764"
   inkscape:window-x="54"
   inkscape:window-y="760"
   inkscape:window-maximized="1"
   inkscape:current-layer="flowRoot2992"
   showguides="true"
   inkscape:guide-bbox="true"><sodipodi:guide
     orientation="1,0"
     position="256.18838,464.82084"
     id="guide3012" /><sodipodi:guide
     orientation="0,1"
     position="159.54247,257.72244"
     id="guide3014" /></sodipodi:namedview>



<g
   transform="matrix(13.633599,0,0,13.633599,-685.43729,-669.98086)"
   style="font-size:40px;font-style:normal;font-weight:normal;line-height:125%;letter-spacing:0px;word-spacing:0px;fill:#000000;fill-opacity:1;stroke:none;font-family:Sans"
   id="flowRoot2992"><flowRoot
     xml:space="preserve"
     id="flowRoot3771"
     style="fill:black;stroke:none;stroke-opacity:1;stroke-width:1px;stroke-linejoin:miter;stroke-linecap:butt;fill-opacity:1;font-family:Sans;font-style:normal;font-weight:normal;font-size:40px;line-height:125%;letter-spacing:0px;word-spacing:0px"><flowRegion
       id="flowRegion3773"><rect
         id="rect3775"
         width="171.38983"
         height="419.7966"
         x="-100.88136"
         y="59.661015" /></flowRegion><flowPara
       id="flowPara3777"></flowPara></flowRoot><g
     id="g3797"
     transform="matrix(0.94450439,0,0,0.94450439,1.5890195,4.271268)"
     style="fill:#ffffff;fill-opacity:0.94117647"><g
       style="font-size:33.07499694999999900px;font-style:normal;font-variant:normal;font-weight:normal;font-stretch:normal;line-height:125%;letter-spacing:0px;word-spacing:0px;fill:#ffffff;fill-opacity:0.94117647;stroke:none;font-family:Khmer UI;-inkscape-font-specification:Khmer UI"
       id="text3779"><path
         d="m 77.613615,52.996784 3.133081,0 0,13.678966 c -2.1e-5,2.379426 -0.269186,4.268963 -0.807495,5.668615 -0.53835,1.399661 -1.510035,2.538228 -2.915057,3.415704 -1.405058,0.877478 -3.248836,1.316217 -5.531341,1.316217 -2.21793,0 -4.0321,-0.382214 -5.442517,-1.146643 -1.41043,-0.764427 -2.417106,-1.870694 -3.020031,-3.318804 -0.602933,-1.448103 -0.904397,-3.426463 -0.904395,-5.935089 l 0,-13.678966 3.133081,0 0,13.662816 c -6e-6,2.056429 0.191101,3.571826 0.573322,4.546197 0.382207,0.974382 1.038969,1.725352 1.970288,2.252911 0.931301,0.527567 2.069868,0.791348 3.415704,0.791346 2.304038,2e-6 3.945943,-0.522178 4.925719,-1.566541 0.979743,-1.044355 1.469623,-3.052324 1.469641,-6.023913 z"
         style="font-family:Arial;-inkscape-font-specification:Arial;fill:#ffffff;fill-opacity:0.94117647"
         id="path3803" /></g><path
       style="fill:#ffffff;fill-opacity:0.94117647;stroke:none"
       d="m 62.108574,79.289665 18.620834,0 0,2.488499 -18.620834,0 z"
       id="rect3795" /></g></g></svg>