<?xml version="1.0" encoding="UTF-8" standalone="no"?>
<!-- The icon can be used freely in both personal and commercial projects with no attribution required, but always appreciated. 
You may NOT sub-license, resell, rent, redistribute or otherwise transfer the icon without express written permission from iconmonstr.com -->

<svg
   xmlns:dc="http://purl.org/dc/elements/1.1/"
   xmlns:cc="http://creativecommons.org/ns#"
   xmlns:rdf="http://www.w3.org/1999/02/22-rdf-syntax-ns#"
   xmlns:svg="http://www.w3.org/2000/svg"
   xmlns="http://www.w3.org/2000/svg"
   xmlns:sodipodi="http://sodipodi.sourceforge.net/DTD/sodipodi-0.dtd"
   xmlns:inkscape="http://www.inkscape.org/namespaces/inkscape"
   version="1.1"
   x="0px"
   y="0px"
   width="512px"
   height="512px"
   viewBox="0 0 512 512"
   enable-background="new 0 0 512 512"
   xml:space="preserve"
   id="svg2"
   inkscape:version="0.48.4 r9939"
   sodipodi:docname="iconmonstr-warning-3-icon.svg"><metadata
   id="metadata9"><rdf:RDF><cc:Work
       rdf:about=""><dc:format>image/svg+xml</dc:format><dc:type
         rdf:resource="http://purl.org/dc/dcmitype/StillImage" /><dc:title></dc:title></cc:Work></rdf:RDF></metadata><defs
   id="defs7" /><sodipodi:namedview
   pagecolor="#ffffff"
   bordercolor="#666666"
   borderopacity="1"
   objecttolerance="10"
   gridtolerance="10"
   guidetolerance="10"
   inkscape:pageopacity="0"
   inkscape:pageshadow="2"
   inkscape:window-width="1304"
   inkscape:window-height="745"
   id="namedview5"
   showgrid="false"
   inkscape:zoom="0.4609375"
   inkscape:cx="-82.440678"
   inkscape:cy="256"
   inkscape:window-x="385"
   inkscape:window-y="1072"
   inkscape:window-maximized="1"
   inkscape:current-layer="svg2" />

<path
   id="warning-3-icon"
   d="M256.002,50C142.23,50,50,142.229,50,256.001C50,369.771,142.23,462,256.002,462   C369.771,462,462,369.771,462,256.001C462,142.229,369.771,50,256.002,50z M256.46,398.518c-16.207,0-29.345-13.139-29.345-29.346   c0-16.205,13.138-29.342,29.345-29.342c16.205,0,29.342,13.137,29.342,29.342C285.802,385.379,272.665,398.518,256.46,398.518z    M295.233,158.239c-2.481,19.78-20.7,116.08-26.723,147.724c-1.113,5.852-6.229,10.1-12.187,10.1h-0.239   c-6.169,0-11.438-4.379-12.588-10.438c-6.1-32.121-24.293-128.504-26.735-147.971c-2.94-23.441,15.354-44.171,38.977-44.171   C279.674,113.483,298.213,134.488,295.233,158.239z"
   style="fill:#ec3f41;fill-opacity:1" />

</svg>