<?xml version="1.0" encoding="UTF-8" standalone="no"?>
<!-- The icon can be used freely in both personal and commercial projects with no attribution required, but always appreciated. 
You may NOT sub-license, resell, rent, redistribute or otherwise transfer the icon without express written permission from iconmonstr.com -->

<svg
   xmlns:dc="http://purl.org/dc/elements/1.1/"
   xmlns:cc="http://creativecommons.org/ns#"
   xmlns:rdf="http://www.w3.org/1999/02/22-rdf-syntax-ns#"
   xmlns:svg="http://www.w3.org/2000/svg"
   xmlns="http://www.w3.org/2000/svg"
   xmlns:sodipodi="http://sodipodi.sourceforge.net/DTD/sodipodi-0.dtd"
   xmlns:inkscape="http://www.inkscape.org/namespaces/inkscape"
   version="1.1"
   x="0px"
   y="0px"
   width="512px"
   height="512px"
   viewBox="0 0 512 512"
   enable-background="new 0 0 512 512"
   xml:space="preserve"
   id="svg2"
   inkscape:version="0.48.4 r9939"
   sodipodi:docname="web.svg"><metadata
   id="metadata9"><rdf:RDF><cc:Work
       rdf:about=""><dc:format>image/svg+xml</dc:format><dc:type
         rdf:resource="http://purl.org/dc/dcmitype/StillImage" /><dc:title /></cc:Work></rdf:RDF></metadata><defs
   id="defs7" /><sodipodi:namedview
   pagecolor="#ffffff"
   bordercolor="#666666"
   borderopacity="1"
   objecttolerance="10"
   gridtolerance="10"
   guidetolerance="10"
   inkscape:pageopacity="0"
   inkscape:pageshadow="2"
   inkscape:window-width="1304"
   inkscape:window-height="745"
   id="namedview5"
   showgrid="false"
   inkscape:zoom="0.65186406"
   inkscape:cx="71.323654"
   inkscape:cy="299.65591"
   inkscape:window-x="385"
   inkscape:window-y="1072"
   inkscape:window-maximized="1"
   inkscape:current-layer="g3898" />



<g
   id="g3828"
   transform="matrix(0.9566381,0,0,0.9566381,9.0554063,17.805655)"><g
     id="g3898"
     transform="translate(-0.72748019,-10.71156)"><g
       id="g3910"
       style="fill:#ffffff;fill-opacity:1;stroke:none"
       transform="matrix(0.95192309,0,0,0.95192309,12.445674,12.4857)"><rect
         transform="matrix(0.70710678,-0.70710678,0.70710678,0.70710678,0,0)"
         y="158.44862"
         x="-22.257982"
         height="417.26489"
         width="41.813095"
         id="rect3772"
         style="fill:#ffffff;fill-opacity:1;stroke:none" /><path
         transform="matrix(0.90444503,0,0,0.90444503,83.267011,-93.321799)"
         d="m 78.101695,193.08475 c 0,44.33255 -35.938634,80.27118 -80.2711865,80.27118 -44.3325525,0 -80.2711865,-35.93863 -80.2711865,-80.27118 0,-44.33256 35.938634,-80.27119 80.2711865,-80.27119 44.3325525,0 80.2711865,35.93863 80.2711865,80.27119 z"
         sodipodi:ry="80.271187"
         sodipodi:rx="80.271187"
         sodipodi:cy="193.08475"
         sodipodi:cx="-2.1694915"
         id="path3750"
         style="fill:#ffffff;fill-opacity:1;stroke:none"
         sodipodi:type="arc" /><path
         transform="matrix(0.90444503,0,0,0.90444503,438.38774,-93.321416)"
         d="m 78.101695,193.08475 c 0,44.33255 -35.938634,80.27118 -80.2711865,80.27118 -44.3325525,0 -80.2711865,-35.93863 -80.2711865,-80.27118 0,-44.33256 35.938634,-80.27119 80.2711865,-80.27119 44.3325525,0 80.2711865,35.93863 80.2711865,80.27119 z"
         sodipodi:ry="80.271187"
         sodipodi:rx="80.271187"
         sodipodi:cy="193.08475"
         sodipodi:cx="-2.1694915"
         id="path3750-1"
         style="fill:#ffffff;fill-opacity:1;stroke:none"
         sodipodi:type="arc" /><path
         transform="matrix(0.90444503,0,0,0.90444503,83.267483,263.45798)"
         d="m 78.101695,193.08475 c 0,44.33255 -35.938634,80.27118 -80.2711865,80.27118 -44.3325525,0 -80.2711865,-35.93863 -80.2711865,-80.27118 0,-44.33256 35.938634,-80.27119 80.2711865,-80.27119 44.3325525,0 80.2711865,35.93863 80.2711865,80.27119 z"
         sodipodi:ry="80.271187"
         sodipodi:rx="80.271187"
         sodipodi:cy="193.08475"
         sodipodi:cx="-2.1694915"
         id="path3750-7"
         style="fill:#ffffff;fill-opacity:1;stroke:none"
         sodipodi:type="arc" /><path
         transform="matrix(0.90444503,0,0,0.90444503,437.96553,260.33266)"
         d="m 78.101695,193.08475 c 0,44.33255 -35.938634,80.27118 -80.2711865,80.27118 -44.3325525,0 -80.2711865,-35.93863 -80.2711865,-80.27118 0,-44.33256 35.938634,-80.27119 80.2711865,-80.27119 44.3325525,0 80.2711865,35.93863 80.2711865,80.27119 z"
         sodipodi:ry="80.271187"
         sodipodi:rx="80.271187"
         sodipodi:cy="193.08475"
         sodipodi:cx="-2.1694915"
         id="path3750-1-4"
         style="fill:#ffffff;fill-opacity:1;stroke:none"
         sodipodi:type="arc" /><rect
         transform="matrix(0.70710678,0.70710678,-0.70710678,0.70710678,0,0)"
         y="-207.10907"
         x="346.50513"
         height="417.26489"
         width="41.813095"
         id="rect3772-0"
         style="fill:#ffffff;fill-opacity:1;stroke:none" /><rect
         y="55.099514"
         x="61.286407"
         height="417.26489"
         width="41.813095"
         id="rect3772-9"
         style="fill:#ffffff;fill-opacity:1;stroke:none" /><rect
         y="47.162094"
         x="415.84726"
         height="417.26492"
         width="41.813095"
         id="rect3772-9-4"
         style="fill:#ffffff;fill-opacity:1;stroke:none" /><rect
         y="-468.57141"
         x="62.7379"
         height="417.26541"
         width="41.813095"
         id="rect3772-9-8"
         style="fill:#ffffff;fill-opacity:1;stroke:none"
         transform="matrix(0,1,-1,0,0,0)" /><rect
         y="-483.00378"
         x="417.35382"
         height="417.26541"
         width="41.813095"
         id="rect3772-9-8-8"
         style="fill:#ffffff;fill-opacity:1;stroke:none"
         transform="matrix(0,1,-1,0,0,0)" /></g></g></g></svg>